<svg width="32" height="32" viewBox="0 0 32 32" fill="none" xmlns="http://www.w3.org/2000/svg">
<path d="M14.6667 9.33333L8.00003 2.66666M25.3227 16H2.72137M11.3334 5.99999L14.1974 3.13599C14.4987 2.83474 14.9073 2.6655 15.3334 2.6655C15.7594 2.6655 16.1681 2.83474 16.4694 3.13599L26.1974 12.864C26.4986 13.1653 26.6679 13.5739 26.6679 14C26.6679 14.4261 26.4986 14.8347 26.1974 15.136L16.0747 25.2587C15.1708 26.1624 13.9449 26.6702 12.6667 26.6702C11.3885 26.6702 10.1626 26.1624 9.2587 25.2587L4.0747 20.0747C3.17093 19.1708 2.66321 17.9449 2.66321 16.6667C2.66321 15.3884 3.17093 14.1626 4.0747 13.2587L7.56003 9.77333M28.1934 24.5067C27.4158 23.8676 26.8777 22.9841 26.6667 22C26.4597 22.9857 25.9208 23.8705 25.14 24.5067C24.3734 25.12 24 25.8667 24 26.6333C23.9956 26.9863 24.0613 27.3367 24.1934 27.6641C24.3254 27.9915 24.5211 28.2894 24.7692 28.5405C25.0173 28.7917 25.3127 28.9911 25.6385 29.1272C25.9642 29.2633 26.3137 29.3334 26.6667 29.3333C27.0197 29.3334 27.3692 29.2633 27.6949 29.1272C28.0207 28.9911 28.3161 28.7917 28.5642 28.5405C28.8123 28.2894 29.008 27.9915 29.14 27.6641C29.2721 27.3367 29.3378 26.9863 29.3334 26.6333C29.3334 25.86 28.9534 25.1267 28.1934 24.5067Z" stroke="#004EDF" stroke-width="2" stroke-linecap="round" stroke-linejoin="round"/>
</svg>
